<mxfile host="app.diagrams.net" modified="2024-05-27T02:32:05.106Z" agent="Mozilla/5.0 (Macintosh; Intel Mac OS X 10_15_7) AppleWebKit/537.36 (KHTML, like Gecko) Chrome/124.0.0.0 Safari/537.36" version="24.4.2" etag="Y2E5gn_W8jwIy7zpQvg2" type="github">
  <diagram name="第 1 页" id="m2qNsplwGHYHztVNJcIK">
    <mxGraphModel>
      <root>
        <mxCell id="0" />
        <mxCell id="1" parent="0" />
      </root>
    </mxGraphModel>
  </diagram>
</mxfile>
